<svg width="22" height="22" viewBox="0 0 22 22" fill="none" xmlns="http://www.w3.org/2000/svg">
<path d="M20.6 22L17.525 18.95C17.225 19.1333 16.9042 19.2708 16.5625 19.3625C16.2208 19.4542 15.8667 19.5 15.5 19.5C14.4 19.5 13.4583 19.1083 12.675 18.325C11.8917 17.5417 11.5 16.6 11.5 15.5C11.5 14.4 11.8917 13.4583 12.675 12.675C13.4583 11.8917 14.4 11.5 15.5 11.5C16.6 11.5 17.5417 11.8917 18.325 12.675C19.1083 13.4583 19.5 14.4 19.5 15.5C19.5 15.8833 19.45 16.2458 19.35 16.5875C19.25 16.9292 19.1083 17.25 18.925 17.55L22 20.6L20.6 22ZM4.5 19.5C3.4 19.5 2.45833 19.1083 1.675 18.325C0.891667 17.5417 0.5 16.6 0.5 15.5C0.5 14.4 0.891667 13.4583 1.675 12.675C2.45833 11.8917 3.4 11.5 4.5 11.5C5.6 11.5 6.54167 11.8917 7.325 12.675C8.10833 13.4583 8.5 14.4 8.5 15.5C8.5 16.6 8.10833 17.5417 7.325 18.325C6.54167 19.1083 5.6 19.5 4.5 19.5ZM4.5 17.5C5.05 17.5 5.52083 17.3042 5.9125 16.9125C6.30417 16.5208 6.5 16.05 6.5 15.5C6.5 14.95 6.30417 14.4792 5.9125 14.0875C5.52083 13.6958 5.05 13.5 4.5 13.5C3.95 13.5 3.47917 13.6958 3.0875 14.0875C2.69583 14.4792 2.5 14.95 2.5 15.5C2.5 16.05 2.69583 16.5208 3.0875 16.9125C3.47917 17.3042 3.95 17.5 4.5 17.5ZM15.5 17.5C16.05 17.5 16.5208 17.3042 16.9125 16.9125C17.3042 16.5208 17.5 16.05 17.5 15.5C17.5 14.95 17.3042 14.4792 16.9125 14.0875C16.5208 13.6958 16.05 13.5 15.5 13.5C14.95 13.5 14.4792 13.6958 14.0875 14.0875C13.6958 14.4792 13.5 14.95 13.5 15.5C13.5 16.05 13.6958 16.5208 14.0875 16.9125C14.4792 17.3042 14.95 17.5 15.5 17.5ZM4.5 8.5C3.4 8.5 2.45833 8.10833 1.675 7.325C0.891667 6.54167 0.5 5.6 0.5 4.5C0.5 3.4 0.891667 2.45833 1.675 1.675C2.45833 0.891667 3.4 0.5 4.5 0.5C5.6 0.5 6.54167 0.891667 7.325 1.675C8.10833 2.45833 8.5 3.4 8.5 4.5C8.5 5.6 8.10833 6.54167 7.325 7.325C6.54167 8.10833 5.6 8.5 4.5 8.5ZM15.5 8.5C14.4 8.5 13.4583 8.10833 12.675 7.325C11.8917 6.54167 11.5 5.6 11.5 4.5C11.5 3.4 11.8917 2.45833 12.675 1.675C13.4583 0.891667 14.4 0.5 15.5 0.5C16.6 0.5 17.5417 0.891667 18.325 1.675C19.1083 2.45833 19.5 3.4 19.5 4.5C19.5 5.6 19.1083 6.54167 18.325 7.325C17.5417 8.10833 16.6 8.5 15.5 8.5ZM4.5 6.5C5.05 6.5 5.52083 6.30417 5.9125 5.9125C6.30417 5.52083 6.5 5.05 6.5 4.5C6.5 3.95 6.30417 3.47917 5.9125 3.0875C5.52083 2.69583 5.05 2.5 4.5 2.5C3.95 2.5 3.47917 2.69583 3.0875 3.0875C2.69583 3.47917 2.5 3.95 2.5 4.5C2.5 5.05 2.69583 5.52083 3.0875 5.9125C3.47917 6.30417 3.95 6.5 4.5 6.5ZM15.5 6.5C16.05 6.5 16.5208 6.30417 16.9125 5.9125C17.3042 5.52083 17.5 5.05 17.5 4.5C17.5 3.95 17.3042 3.47917 16.9125 3.0875C16.5208 2.69583 16.05 2.5 15.5 2.5C14.95 2.5 14.4792 2.69583 14.0875 3.0875C13.6958 3.47917 13.5 3.95 13.5 4.5C13.5 5.05 13.6958 5.52083 14.0875 5.9125C14.4792 6.30417 14.95 6.5 15.5 6.5Z" fill="white"/>
</svg>
