<svg width="16" height="22" viewBox="0 0 16 22" fill="none" xmlns="http://www.w3.org/2000/svg">
<path d="M2 22C1.45 22 0.979167 21.8042 0.5875 21.4125C0.195833 21.0208 0 20.55 0 20V2C0 1.45 0.195833 0.979167 0.5875 0.5875C0.979167 0.195833 1.45 0 2 0H12C12.55 0 13.0208 0.195833 13.4125 0.5875C13.8042 0.979167 14 1.45 14 2V6H12V5H2V17H12V16H14V20C14 20.55 13.8042 21.0208 13.4125 21.4125C13.0208 21.8042 12.55 22 12 22H2ZM2 19V20H12V19H2ZM2 3H12V2H2V3ZM12.15 12H7V15H5V12C5 11.45 5.19583 10.9792 5.5875 10.5875C5.97917 10.1958 6.45 10 7 10H12.15L10.6 8.4L12 7L16 11L12 15L10.6 13.6L12.15 12Z" fill="white"/>
</svg>
